HIERARCHY
ROOT pelvis
{
  OFFSET 0 100 0
  CHANNELS 6 Xposition Yposition Zposition Zrotation Xrotation Yrotation
  JOINT pelvis_right_femur
  {
    OFFSET -10.78128 -3.44521 -0.5502486
    CHANNELS 3 Zrotation Xrotation Yrotation
    JOINT right_femur_tibia
    {
      OFFSET -0.8047443 -44.0398 -0.1307829
      CHANNELS 3 Zrotation Xrotation Yrotation
      JOINT right_tibia_foot
      {
        OFFSET 3.006224 -47.83518 -5
        CHANNELS 3 Zrotation Xrotation Yrotation
        End Site
        {
          OFFSET 0 -5 15
        }
      }
    }
  }
  JOINT pelvis_left_femur
  {
    OFFSET 10.78128 -3.44521 -0.5502486
    CHANNELS 3 Zrotation Xrotation Yrotation
    JOINT left_femur_tibia
    {
      OFFSET 0.8047443 -44.0398 -0.1307829
      CHANNELS 3 Zrotation Xrotation Yrotation
      JOINT left_tibia_foot
      {
        OFFSET -4.370144 -48.10324 -4.275266
        CHANNELS 3 Zrotation Xrotation Yrotation
        End Site
        {
          OFFSET 0 -5 15
        }
      }
    }
  }
  JOINT pelvis_spine1
  {
    OFFSET 0 6.468898 -3.129235
    CHANNELS 3 Zrotation Xrotation Yrotation
    JOINT spine1
    {
      OFFSET 0 23.15396 4.99043
      CHANNELS 3 Zrotation Xrotation Yrotation
      JOINT spine2
      {
        OFFSET 0 20.79997 -5.064912
        CHANNELS 3 Zrotation Xrotation Yrotation
        JOINT neck
        {
          OFFSET 0 14.38658 9.616178
          CHANNELS 3 Zrotation Xrotation Yrotation
          End Site
          {
            OFFSET 0 20 0
          }
        }
      }
      JOINT right_manubrium
      {
        OFFSET -5.722621 16.35077 3.967754
        CHANNELS 3 Zrotation Xrotation Yrotation
        JOINT right_clavicle
        {
          OFFSET -13.16364 1.694482 -4.693211
          CHANNELS 3 Zrotation Xrotation Yrotation
          JOINT right_humerus
          {
            OFFSET -28.5034 -0.3100689 -2.792744
            CHANNELS 3 Zrotation Xrotation Yrotation
            JOINT right_radius
            {
              OFFSET -25.15693 0.02248979 -1.271978
              CHANNELS 3 Zrotation Xrotation Yrotation
              End Site
              {
                OFFSET -15 0 0
              }
            }
          }
        }
      }
      JOINT left_manubrium
      {
        OFFSET 5.722621 16.35077 3.967754
        CHANNELS 3 Zrotation Xrotation Yrotation
        JOINT left_clavicle
        {
          OFFSET 13.16364 1.694482 -4.693211
          CHANNELS 3 Zrotation Xrotation Yrotation
          JOINT left_humerus
          {
            OFFSET 29.39168 -1.063119 -2.237045
            CHANNELS 3 Zrotation Xrotation Yrotation
            JOINT left_radius
            {
              OFFSET 24.59957 -0.9528479 0.9047498
              CHANNELS 3 Zrotation Xrotation Yrotation
              End Site
              {
                OFFSET 15 -0 -0
              }
            }
          }
        }
      }
    }
  }
}
MOTION
Frames: 15
Frame Time: 0.0416666666667
2344.728 116.5922 358.6898 5.532462 2.785823 104.148 0.5954741 18.42433 3.951163 -0 31.90162 -0 -0.4742101 -7.67642 -1.4026 -2.079986 -21.89655 -6.5172 -0 19.09943 -0 -4.344196 -7.780761 19.52538 -2.39655 -0.3423687 7.556859 -1.034662 8.857593 -2.564323 2.371697 22.72929 4.743605 2.093267 -17.68163 6.765021 0.7474648 -20.75324 10.3057 81.08277 23.93825 -4.37781 -0 0 22.49871 -23.79611 8.675617 14.52026 3.678515 -14.3247 -2.411136 -93.70882 23.54452 25.46272 0 0 -6.34297 -1.480519 7.573533 15.44445
2351.187 117.1122 355.8543 6.150683 3.414686 104.4431 -0.1100773 16.15706 4.176974 -0 40.83546 -0 -0.4596634 -3.160446 -2.312457 -3.653334 -18.08415 -7.656647 -0 21.0922 -0 -3.681996 -8.578619 19.38541 -2.975937 -0.4647686 7.13842 -1.211669 9.333789 -2.728988 2.474405 22.8014 4.853634 2.20511 -17.66456 6.956169 1.153143 -20.03694 10.34421 82.41689 23.96148 -5.67063 -0 0 20.94177 -23.63681 8.832195 14.11207 3.431976 -14.46202 -2.764505 -93.18028 23.54348 24.79117 0 0 -5.79118 -1.13008 7.599255 15.19078
2357.388 118.1098 353.1162 6.871936 3.955625 105.1123 -0.4900301 12.36361 4.215045 -0 48.83343 -0 -0.6603074 0.5229473 -3.440231 -4.841863 -13.5039 -8.562712 -0 22.09881 -0 -3.078437 -9.603232 19.13752 -3.360866 -0.2718732 6.367737 -1.283723 9.71755 -3.042959 2.482236 23.0162 5.020892 2.215818 -17.50495 7.166769 1.483676 -19.19474 10.37848 83.92511 24.13518 -7.199731 -0 0 19.03226 -23.15934 8.954423 13.59565 3.241039 -14.78664 -3.249735 -92.16623 23.76292 23.32771 0 0 -6.199231 -0.7818392 7.640251 14.95673
2363.195 119.3256 350.5457 7.548546 4.292363 106.0772 -0.5516047 7.136645 3.980505 -0 54.44709 -0 -1.085982 2.709431 -4.599272 -5.527908 -8.387164 -9.218213 -0 21.61298 -0 -2.6236 -10.829 18.66819 -3.46434 0.1937103 5.289056 -1.202299 9.891685 -3.522237 2.405403 23.34975 5.23192 2.116947 -17.2285 7.393212 1.635767 -18.29927 10.35503 85.46435 24.36565 -8.89462 -0 0 16.9664 -22.43174 8.981818 13.03897 3.124657 -15.28143 -3.849288 -90.6559 24.24903 21.05965 0 0 -7.73505 -0.5533073 7.726216 14.86097
2368.572 120.4549 348.1808 8.043704 4.365935 107.2018 -0.3862175 0.7843503 3.480226 -0 56.5777 -0 -1.727629 3.138703 -5.647192 -5.725589 -3.034192 -9.668119 -0 19.76697 -0 -2.377835 -12.25175 17.91898 -3.289083 0.8216203 4.033367 -0.9413527 9.796417 -4.152016 2.287884 23.74141 5.443911 1.930186 -16.90428 7.622512 1.571904 -17.40844 10.2466 86.89379 24.5451 -10.70301 -0 0 14.93243 -21.54397 8.908277 12.47406 3.104015 -15.92399 -4.503621 -88.75188 24.94768 18.11051 0 0 -10.3116 -0.5052454 7.91138 14.93462
2373.581 121.2274 346.0259 8.253747 4.188784 108.3316 -0.1272819 -6.15003 2.799457 -0 54.76926 -0 -2.512703 1.989206 -6.524028 -5.557611 2.199792 -9.972351 -0 17.20215 -0 -2.364955 -13.8761 16.92455 -2.934695 1.463664 2.794925 -0.5124405 9.436192 -4.877119 2.198246 24.1055 5.588236 1.692521 -16.6198 7.837963 1.324801 -16.55817 10.04886 88.09146 24.58471 -12.55923 -0 0 13.09743 -20.57706 8.783017 11.88483 3.207546 -16.67614 -5.102346 -86.66941 25.71274 14.74691 0 0 -13.55181 -0.6028384 8.249034 15.08293
2378.364 121.4749 344.0548 8.124847 3.854394 109.3402 0.09214454 -12.94019 2.057614 -0 49.36395 -0 -3.307994 -0.1849447 -7.240682 -5.221252 6.96654 -10.16191 -0 14.81604 -0 -2.569723 -15.68299 15.80169 -2.574005 1.975941 1.780711 0.02855189 8.873823 -5.608254 2.207902 24.36069 5.591987 1.443509 -16.44082 8.023854 0.9787567 -15.75027 9.77272 88.9882 24.44761 -14.38359 -0 0 11.5592 -19.58515 8.68499 11.2145 3.46202 -17.48563 -5.512464 -84.67301 26.3645 11.31366 0 0 -16.89859 -0.7121118 8.761098 15.10306
2383.098 121.1635 342.2178 7.666479 3.520862 110.1691 0.1746385 -18.81913 1.35817 -0 41.43877 -0 -3.970062 -2.635013 -7.82844 -4.930084 11.01658 -10.22298 -0 13.43771 -0 -2.952003 -17.58551 14.68706 -2.387549 2.255944 1.13896 0.5896574 8.210267 -6.246256 2.358739 24.46525 5.412205 1.218427 -16.37381 8.16329 0.634342 -14.949 9.441939 89.60102 24.1605 -16.11174 -0 0 10.29806 -18.59474 8.683007 10.3941 3.868484 -18.29519 -5.642355 -82.97206 26.77811 8.118514 0 0 -19.84218 -0.6614855 9.418599 14.78211
2387.964 120.3867 340.4517 6.95603 3.340125 110.8439 0.1081845 -23.18124 0.7731442 -0 32.54904 -0 -4.410572 -4.683191 -8.295158 -4.820302 14.26445 -10.13083 -0 13.54375 -0 -3.48386 -19.37933 13.66198 -2.465904 2.261064 0.8917947 1.071406 7.552693 -6.717312 2.633753 24.4349 5.067058 1.048556 -16.3663 8.232113 0.3766524 -14.10329 9.098684 90.02623 23.80307 -17.71749 -0 0 9.188985 -17.61028 8.804933 9.383686 4.376845 -19.04187 -5.50129 -81.65693 26.96233 5.360183 0 0 -22.11018 -0.3536276 10.1468 14.04061
2393.112 119.3302 338.6961 6.124278 3.338402 111.4484 0.04358974 -25.76224 0.3900665 -0 24.40536 -0 -4.650816 -5.956909 -8.616551 -4.850628 16.76015 -9.918014 -0 15.16488 -0 -4.184812 -20.70078 12.72474 -2.722242 2.011983 0.9113231 1.41319 6.98472 -7.003915 2.949085 24.32483 4.645801 0.964924 -16.37137 8.200065 0.270017 -13.19753 8.809826 90.36776 23.49841 -19.18497 -0 0 8.099778 -16.61741 9.034931 8.217018 4.878983 -19.63969 -5.200223 -80.75346 27.07446 3.192837 0 0 -23.64704 0.1476168 10.85988 13.02751
2398.632 118.2342 336.911 5.321109 3.328936 112.0545 0.3204927 -26.68802 0.3664071 -0 18.53877 -0 -4.838639 -6.4779 -8.752457 -4.783427 18.54556 -9.712708 -0 18.07996 -0 -5.103412 -21.04071 11.84305 -2.887156 1.591145 0.9771667 1.637391 6.555068 -7.152499 3.178568 24.18528 4.284219 0.9940373 -16.44352 8.046257 0.3795793 -12.30499 8.661263 90.63233 23.41954 -20.43359 -0 0 7.016613 -15.59358 9.335951 7.037408 5.229255 -19.96952 -4.877881 -80.35437 27.32328 1.875807 0 0 -24.39971 0.6386935 11.50058 12.07999
2404.522 117.3592 335.0875 4.679069 2.995743 112.6412 1.291146 -26.29905 0.8662365 -0 15.84907 -0 -5.180667 -6.586173 -8.668707 -4.342519 19.46831 -9.679244 -0 22.23005 -0 -6.222354 -19.90496 11.05378 -2.655702 1.128709 0.9238654 1.850126 6.287601 -7.240425 3.212049 24.03319 4.099941 1.136713 -16.75501 7.779803 0.7836355 -11.58977 8.729922 90.68143 23.77603 -21.27742 -0 0 6.079414 -14.54277 9.673117 6.086286 5.287313 -19.91977 -4.604917 -80.65918 27.78631 1.78761 0 0 -24.18026 0.905451 12.03492 11.55147
2410.676 116.9425 333.2383 4.288442 2.19453 113.0742 2.953068 -24.80613 1.85793 -0 16.06793 -0 -5.776951 -6.73755 -8.355879 -3.511124 19.11801 -9.864021 -0 28.0018 -0 -7.36534 -17.15701 10.50941 -1.95476 0.76427 0.8043188 2.163311 6.204311 -7.306725 3.028852 23.87857 4.11316 1.350659 -17.43863 7.443545 1.529317 -11.22225 9.042541 90.32149 24.71154 -21.51209 -0 0 5.467773 -13.54904 10.01602 5.599893 4.974759 -19.48657 -4.360307 -81.78956 28.29556 3.136833 0 0 -22.87159 0.8543609 12.39659 11.61402
2416.908 117.1319 331.373 4.181174 1.22106 113.187 4.746348 -22.11703 2.987226 -0 17.67882 -0 -6.478588 -7.216268 -7.831421 -2.672581 17.02148 -10.08488 -0 35.84176 -0 -8.238498 -13.33039 10.39494 -1.098094 0.6046016 0.9028097 2.574193 6.349475 -7.301483 2.726151 23.77149 4.231734 1.578918 -18.36813 7.090847 2.541179 -11.27053 9.554744 89.48765 26.13592 -21.08395 -0 0 5.25705 -12.80602 10.32835 5.662447 4.336895 -18.85013 -4.112276 -83.52072 28.55821 5.592913 0 0 -20.80751 0.5551067 12.46089 12.15399
2423.019 117.9146 329.4917 4.333121 0.6521382 112.8986 5.915897 -18.11328 3.805489 -0 18.82269 -0 -6.963009 -7.925469 -7.12424 -2.289057 12.98411 -10.04141 -0 45.20836 -0 -8.600818 -9.512891 10.81242 -0.5774273 0.6949854 1.508401 2.925676 6.78079 -7.121996 2.447567 23.77697 4.34539 1.806128 -19.17073 6.76063 3.586204 -11.69407 10.17247 88.32651 27.68726 -20.13118 -0 0 5.444656 -12.56264 10.57401 6.170472 3.575782 -18.30405 -3.887394 -85.33162 28.40954 8.378538 0 0 -18.75262 0.206924 12.1196 12.81322
